<?xml version="1.0" encoding="UTF-8" standalone="no"?>
<svg
   xmlns:dc="http://purl.org/dc/elements/1.1/"
   xmlns:cc="http://creativecommons.org/ns#"
   xmlns:rdf="http://www.w3.org/1999/02/22-rdf-syntax-ns#"
   xmlns:svg="http://www.w3.org/2000/svg"
   xmlns="http://www.w3.org/2000/svg"
   xmlns:sodipodi="http://sodipodi.sourceforge.net/DTD/sodipodi-0.dtd"
   xmlns:inkscape="http://www.inkscape.org/namespaces/inkscape"
   version="1.1"
   id="svg2"
   xml:space="preserve"
   width="440"
   height="428.38666"
   viewBox="0 0 440 428.38666"
   sodipodi:docname="gears_001.eps"><metadata
     id="metadata8"><rdf:RDF><cc:Work
         rdf:about=""><dc:format>image/svg+xml</dc:format><dc:type
           rdf:resource="http://purl.org/dc/dcmitype/StillImage" /></cc:Work></rdf:RDF></metadata><defs
     id="defs6" /><sodipodi:namedview
     pagecolor="#ffffff"
     bordercolor="#666666"
     borderopacity="1"
     objecttolerance="10"
     gridtolerance="10"
     guidetolerance="10"
     inkscape:pageopacity="0"
     inkscape:pageshadow="2"
     inkscape:window-width="640"
     inkscape:window-height="480"
     id="namedview4" /><g
     id="g10"
     inkscape:groupmode="layer"
     inkscape:label="ink_ext_XXXXXX"
     transform="matrix(1.3333333,0,0,-1.3333333,0,428.38667)"><g
       id="g12"
       transform="scale(0.1)"><path
         d="m 3246.08,1108.7 53.92,218.79 -191.92,84.97 -13.94,91.44 157.99,138.35 -116.48,192.67 -195.6,-75.7 -74.55,54.8 13.96,209.69 -218.58,54.02 -84.94,-192.28 -91.46,-13.97 -138.19,157.84 -192.67,-116.48 75.56,-195.26 -54.81,-74.55 -209.09,13.99 -53.96,-218.79 191.97,-85 13.93,-91.42 -158,-138.32 116.46,-192.717 195.61,75.707 74.55,-54.808 -13.95,-209.641 218.57,-54.031 84.95,192.254 91.47,13.976 138.16,-157.832 192.73,116.504 -75.58,195.208 54.83,74.55 z m -492.01,28.64 c -135.57,-81.83 -311.93,-38.36 -393.94,97.11 -81.83,135.58 -38.31,311.92 97.14,393.93 135.58,81.83 311.93,38.33 393.94,-97.1 81.8,-135.58 38.34,-311.94 -97.14,-393.94"
         style="fill:#100f0d;fill-opacity:1;fill-rule:nonzero;stroke:none"
         id="path14" /><path
         d="m 1746.4,1395.25 -122.5,289.13 78.65,114.35 314.13,-11.01 70.52,330.54 -291.75,118.3 -25.22,136.45 230.33,214.88 -183.71,283.38 -289.67,-122.74 -114.37,78.66 10.99,315.01 -330.22,70.67 L 975.305,2920.58 838.816,2895.32 624.203,3125.41 340.805,2941.7 463.34,2652.56 384.68,2538.18 70.5508,2549.24 0,2218.68 291.793,2100.37 316.996,1963.92 86.6523,1749.05 270.375,1465.68 l 289.668,122.72 114.371,-78.65 -10.996,-314.99 330.238,-70.67 118.264,292.28 136.47,25.25 214.63,-230.08 z m -468.7,412.11 c -199.38,-129.06 -465.868,-72.2 -595.212,127.02 -129.074,199.39 -72.168,465.87 127.024,595.19 199.408,129.08 465.878,72.2 595.208,-127 129.07,-199.41 72.22,-465.86 -127.02,-595.21"
         style="fill:#100f0d;fill-opacity:1;fill-rule:nonzero;stroke:none"
         id="path16" /><path
         d="m 2093.6,572.91 104.74,98.781 -84.67,129.09 -132.12,-56.836 -52.49,35.703 4.24,144.043 -151.12,31.485 -53.36,-133.906 -62.33,-11.895 -98.67,104.68 -129.11,-84.688 56.72,-131.887 -35.69,-52.48 -143.63,4.297 -31.44,-151.289 133.67,-53.406 11.87,-62.305 -104.78,-98.809 84.69,-129.101 132.11,56.836 52.5,-35.676 L 1590.47,31.5352 1741.64,0 l 53.34,133.926 62.32,11.887 98.67,-104.6802 129.13,84.6682 -56.74,131.906 35.7,52.457 143.66,-4.234 31.4,151.258 -133.69,53.398 z M 1869.8,313.078 c -90.84,-59.504 -212.79,-34.164 -272.41,56.621 -59.5,90.84 -34.15,212.801 56.59,272.403 90.85,59.511 212.83,34.168 272.45,-56.594 59.5,-90.867 34.15,-212.813 -56.63,-272.43"
         style="fill:#100f0d;fill-opacity:1;fill-rule:nonzero;stroke:none"
         id="path18" /></g></g></svg>
